<?xml version="1.0" encoding="UTF-8"?>
<svg width="512" height="512" version="1.1" viewBox="0 0 135.47 135.47" xmlns="http://www.w3.org/2000/svg">
 <g transform="translate(0 -161.53)">
  <circle cx="67.733" cy="229.27" r="59.797" fill="#f0f7ff" stroke-width=".26458"/>
  <g>
   <rect x="32.879" y="214.93" width="11.48" height="32.037" rx="1.5923" ry="1.5923" fill="#4dabf7" stroke-width=".26458"/>
   <rect x="52.026" y="202.29" width="11.48" height="44.677" rx="1.5923" ry="1.5923" fill="#74c0fc" stroke-width=".26458"/>
   <rect x="71.174" y="208.92" width="11.48" height="38.047" rx="1.5923" ry="1.5923" fill="#a5d8ff" stroke-width=".26458"/>
   <rect x="90.321" y="195.66" width="11.48" height="51.307" rx="1.5923" ry="1.5923" fill="#1971c2" stroke-width=".26458"/>
  </g>
  <g fill="#f0f7ff">
   <path d="m34.471 246.96a1.5923 1.5923 0 0 1-1.5923-1.5922v-30.444a1.5923 1.5923 0 0 1 1.5923-1.5923h8.2952a1.5923 1.5923 0 0 1 1.5923 1.5923v30.444a1.5923 1.5923 0 0 1-1.5923 1.5922z" opacity=".2" stroke-width=".26458"/>
   <path d="m53.618 246.96a1.5923 1.5923 0 0 1-1.5923-1.5922v-43.084a1.5923 1.5923 0 0 1 1.5923-1.5923h8.2952a1.5923 1.5923 0 0 1 1.5923 1.5923v43.084a1.5923 1.5923 0 0 1-1.5923 1.5922z" opacity=".2" stroke-width=".26458"/>
   <path d="m72.766 246.96a1.5923 1.5923 0 0 1-1.5923-1.5922v-36.455a1.5923 1.5923 0 0 1 1.5923-1.5923h8.2952a1.5923 1.5923 0 0 1 1.5923 1.5923v36.455a1.5923 1.5923 0 0 1-1.5923 1.5922z" opacity=".2" stroke-width=".26458"/>
   <path d="m91.913 246.96a1.5923 1.5923 0 0 1-1.5923-1.5922v-49.714a1.5923 1.5923 0 0 1 1.5923-1.5923h8.2952a1.5923 1.5923 0 0 1 1.5923 1.5923v49.714a1.5923 1.5923 0 0 1-1.5923 1.5922z" opacity=".2" stroke-width=".26458"/>
  </g>
  <path d="m103.84 246.96h-72.215c-0.21723 0-0.39687-0.17964-0.39687-0.39687v-0.79375c0-0.21723 0.17964-0.39687 0.39687-0.39687h72.215c0.21723 0 0.39687 0.17964 0.39687 0.39687v0.79375c0 0.21723-0.17964 0.39687-0.39687 0.39687z" fill="#868e96" stroke-width=".26458"/>
 </g>
</svg>