<?xml version="1.0" encoding="UTF-8"?>
<svg width="512" height="512" version="1.1" viewBox="0 0 135.47 135.47" xmlns="http://www.w3.org/2000/svg">
 <g transform="translate(0 -161.53)">
  <circle cx="67.733" cy="229.27" r="59.797" fill="#f0f7ff" stroke-width=".26458"/>
  <g stroke-width=".26458">
   <path d="m67.733 193.45c-19.779 0-35.814 16.035-35.814 35.814 0 19.778 16.035 35.814 35.814 35.814 19.778 0 35.814-16.036 35.814-35.814 0-19.779-16.036-35.814-35.814-35.814zm0 3.9793c17.583 0 31.834 14.251 31.834 31.834 0 17.583-14.251 31.834-31.834 31.834-17.583 0-31.834-14.251-31.834-31.834 0-17.583 14.251-31.834 31.834-31.834z" fill="#228be6" stroke-width=".26458"/>
   <path d="m67.733 199.42c-16.492 0-29.846 13.354-29.846 29.846s13.354 29.846 29.846 29.846 29.846-13.354 29.846-29.846-13.354-29.846-29.846-29.846zm0 3.9793c14.296 0 25.867 11.571 25.867 25.867s-11.571 25.867-25.867 25.867-25.867-11.571-25.867-25.867 11.571-25.867 25.867-25.867z" fill="#74c0fc" stroke-width=".26458"/>
   <g fill="#40c057" stroke-width=".26458">
    <path d="m67.736 206.82c-0.46389 0-0.83726 0.37336-0.83726 0.83726v10.051h-10.055c-0.46389 0-0.83726 0.37336-0.83726 0.83726v5.0441c0 0.46389 0.37336 0.83726 0.83726 0.83726h10.055v21.778c0 0.46389 0.37336 0.83726 0.83726 0.83726h5.0441c0.46389 0 0.83726-0.37336 0.83726-0.83726v-21.778h10.047c0.46389 0 0.83931-0.37337 0.83931-0.83726v-5.0441c0-0.4639-0.37542-0.83726-0.83931-0.83726h-10.047v-10.051c0-0.4639-0.37337-0.83726-0.83726-0.83726z" stroke-width=".26458"/>
    <path d="m91.683 202.86c-0.97367 0-1.7579 0.78423-1.7579 1.7579v4.0485h-8.3628c-0.97367 0-1.7579 0.78423-1.7579 1.7579v2.5163c0 0.97367 0.78424 1.7579 1.7579 1.7579h8.3628v20.335c0 0.97367 0.78424 1.7579 1.7579 1.7579h2.5163c0.97367 0 1.7579-0.78424 1.7579-1.7579v-20.335h8.3711c0.97367 0 1.7538-0.78424 1.7538-1.7579v-2.5163c0-0.97367-0.78011-1.7579-1.7538-1.7579h-8.3711v-4.0485c0-0.97367-0.78423-1.7579-1.7579-1.7579z" opacity=".3" stroke-width=".26458"/>
    <path d="m43.794 202.86c-0.97367 0-1.7538 0.78423-1.7538 1.7579v4.0485h-8.3752c-0.97367 0-1.7538 0.78423-1.7538 1.7579v2.5163c0 0.97367 0.78011 1.7579 1.7538 1.7579h8.3752v20.335c0 0.97367 0.78011 1.7579 1.7538 1.7579h2.5163c0.97367 0 1.7579-0.78424 1.7579-1.7579v-20.335h8.3628c0.97367 0 1.7579-0.78424 1.7579-1.7579v-2.5163c0-0.97367-0.78424-1.7579-1.7579-1.7579h-8.3628v-4.0485c0-0.97367-0.78424-1.7579-1.7579-1.7579z" opacity=".3" stroke-width=".26458"/>
   </g>
  </g>
 </g>
</svg>