<?xml version="1.0" encoding="UTF-8"?>
<svg width="512" height="512" version="1.1" viewBox="0 0 135.47 135.47" xmlns="http://www.w3.org/2000/svg">
 <g transform="translate(0 -161.53)">
  <g transform="matrix(.35278 0 0 .35278 -40.849 121.38)">
   <circle cx="308.33" cy="307.09" r="169.34" fill="#f0f7ff" stroke-width=".26458"/>
   <g transform="matrix(4.0123 0 0 4.0123 -150.58 -11.094)" fill="#4dabf7">
    <path d="m101.93 80.865c-0.35984-0.42426-0.89959-0.67881-1.4394-0.67881h-1.7991v-1.7991c0-0.53978-0.25456-1.0795-0.67881-1.4394-0.42426-0.35984-0.98506-0.53976-1.5486-0.4845-1.1243 0.11081-1.9631 1.0795-1.9631 2.2036v1.5194h-1.7991c-0.53978 0-1.0795 0.25456-1.4394 0.67881-0.35984 0.42426-0.53976 0.98506-0.4845 1.5486 0.11081 1.1243 1.0795 1.9631 2.2036 1.9631h1.5194v1.7991c0 0.53978 0.25456 1.0795 0.67881 1.4394 0.42426 0.35984 0.98506 0.53976 1.5486 0.4845 1.1243-0.11081 1.9631-1.0795 1.9631-2.2036v-1.5194h1.7991c0.53978 0 1.0795-0.25456 1.4394-0.67881s0.53976-0.98506 0.4845-1.5486c-0.11081-1.1243-1.0795-1.9631-2.2036-1.9631h-1.5194v-1.7991h1.7991c0.53978 0 1.0795-0.25456 1.4394-0.67881 0.35984-0.42426 0.53976-0.98506 0.4845-1.5486-0.11081-1.1243-1.0795-1.9631-2.2036-1.9631h-1.5194v-1.7991c0-0.53978-0.25456-1.0795-0.67881-1.4394-0.42426-0.35984-0.98506-0.53976-1.5486-0.4845-1.1243 0.11081-1.9631 1.0795-1.9631 2.2036v1.5194h-1.7991c-0.53978 0-1.0795 0.25456-1.4394 0.67881-0.35984 0.42426-0.53976 0.98506-0.4845 1.5486 0.11081 1.1243 1.0795 1.9631 2.2036 1.9631h1.5194v1.7991h-1.7991c-0.53978 0-1.0795 0.25456-1.4394 0.67881-0.35984 0.42426-0.53976 0.98506-0.4845 1.5486 0.11081 1.1243 1.0795 1.9631 2.2036 1.9631h1.5194v1.7991c0 0.53978 0.25456 1.0795 0.67881 1.4394 0.42426 0.35984 0.98506 0.53976 1.5486 0.4845 1.1243-0.11081 1.9631-1.0795 1.9631-2.2036v-1.5194h1.7991c1.1243 0 2.0928-0.83892 2.2036-1.9631 0.05525-0.56353-0.12471-1.1243-0.4845-1.5486z" fill="#4dabf7"/>
   </g>
   <g transform="matrix(3.0823 0 0 3.0823 -22.907 87.778)" stroke-width=".26458">
    <path d="m123.97 74.283-19.579-21.166c-5.9531 7.0908-11.642 13.918-17.595 21.166h13.196v4.3989h10.782v-4.3989z" fill="#4dabf7" stroke-width=".26458"/>
    <path d="m109.97 74.283v4.3989h-10.782c0 13.196 0 26.393 0 39.59h10.782v-39.59z" fill="#74c0fc" stroke-width=".26458"/>
    <path d="m109.97 74.283 19.579-21.166c5.9531 7.0908 11.642 13.918 17.595 21.166h-13.196v4.3989h-10.782v-4.3989z" fill="#228be6" stroke-width=".26458"/>
    <path d="m123.97 74.283v4.3989h10.782c0 13.196 0 26.393 0 39.59h-10.782v-39.59z" fill="#1971c2" stroke-width=".26458"/>
   </g>
   <g transform="matrix(2.1548 0 0 2.1548 92.87 151.13)" stroke-width=".26458">
    <ellipse cx="96.573" cy="72.193" rx="6.2801" ry="6.2801" fill="#74c0fc" stroke-width=".26458"/>
    <g fill="#f0f7ff" stroke-width=".26458">
     <path d="m96.573 78.206a6.0135 6.0135 0 0 1-5.9926-5.5033 6.3016 6.3016 0 0 0-0.0209 0.49023 6.2802 6.2802 0 0 0 6.2802 6.2802 6.2802 6.2802 0 0 0 6.2802-6.2802 6.3016 6.3016 0 0 0-0.0214-0.50075 6.0135 6.0135 0 0 1-6.5255 5.5138z" opacity=".2" stroke-width=".26458"/>
    </g>
   </g>
  </g>
 </g>
</svg>